<?xml version="1.0" encoding="UTF-8" standalone="no"?>
<svg
   xmlns:dc="http://purl.org/dc/elements/1.1/"
   xmlns:cc="http://creativecommons.org/ns#"
   xmlns:rdf="http://www.w3.org/1999/02/22-rdf-syntax-ns#"
   xmlns:svg="http://www.w3.org/2000/svg"
   xmlns="http://www.w3.org/2000/svg"
   viewBox="0 0 508.75 508.75"
   height="508.75"
   width="508.75"
   xml:space="preserve"
   version="1.1"
   id="svg2"><metadata
     id="metadata8"><rdf:RDF><cc:Work
         rdf:about=""><dc:format>image/svg+xml</dc:format><dc:type
           rdf:resource="http://purl.org/dc/dcmitype/StillImage" /><dc:title></dc:title></cc:Work></rdf:RDF></metadata><defs
     id="defs6" /><g
     transform="matrix(1.25,0,0,-1.25,0,508.75)"
     id="g10"><path
       d="M 406.398,203.199 C 406.398,90.973 315.426,0 203.199,0 90.977,0 0,90.973 0,203.199 c 0,112.223 90.977,203.199 203.199,203.199 112.227,0 203.199,-90.976 203.199,-203.199 z"
       style="fill:#ffdd55;fill-opacity:1;fill-rule:nonzero;stroke:none"
       id="path14" /><path
       id="path4773"
       d="m 212.15925,263.32176 46.14206,0 c 11.81904,-9.40252 -3.40369,-148.57 -16.78918,-207.907352 l -62.17467,29.694835 z"
       style="fill:#612c34;fill-opacity:1;fill-rule:evenodd;stroke:none;stroke-width:1px;stroke-linecap:butt;stroke-linejoin:miter;stroke-opacity:1" /><path
       id="path4759"
       d="m 232.47953,335.58147 c -16.77562,-0.4517 -28.11744,-17.80053 -27.12222,-31.40605 -3.40782,-1.36335 -3.06046,-19.13627 2.78727,-23.37889 2.74625,-9.45702 11.15426,-29.83686 20.58059,-29.8655 11.42588,-0.11174 17.40251,7.29717 26.17611,12.28926 l 2.33496,16.17061 c 2.43965,3.79524 7.03504,14.68863 2.72741,26.63865 -0.0829,20.69439 -14.03984,29.30464 -27.48412,29.55192 z"
       style="fill:#ffb380;fill-opacity:1;fill-rule:evenodd;stroke:none;stroke-width:1px;stroke-linecap:butt;stroke-linejoin:miter;stroke-opacity:1" /><path
       id="path4767"
       d="m 181.74744,83.996947 61.71526,-12.248199 49.84131,-33.86831 1.06143,-16.342326 C 264.88604,7.2096999 222.31698,-6.5789489 166.02991,3.360559 l -0.005,28.096201 z"
       style="fill:#121216;fill-opacity:1;fill-rule:evenodd;stroke:none;stroke-width:1px;stroke-linecap:butt;stroke-linejoin:miter;stroke-opacity:1" /><path
       id="path4882"
       d="M 180.05952,84.611738 251.24649,70.337263 249.20728,52.88792 176.53725,68.089305 Z"
       style="fill:#121e2a;fill-opacity:1;fill-rule:evenodd;stroke:none;stroke-width:1px;stroke-linecap:butt;stroke-linejoin:miter;stroke-opacity:1" /><path
       id="path4761"
       d="m 212.15925,263.32176 -2.70111,1.89703 -4.74033,-1.34718 -41.55187,4.07212 -20.83045,15.92917 c 0,0 -33.90055,55.13946 -35.94277,53.50569 -2.04219,-1.63375 -27.859733,-20.07927 -30.224587,-26.95706 42.392217,-88.71451 38.470057,-67.4596 85.566167,-101.99109 -2.34569,-56.60698 -11.68321,-104.0064 -24.70854,-159.002303 l 30.22458,-17.971377 8.98569,19.605141 z"
       style="fill:#b3292b;fill-opacity:1;fill-rule:evenodd;stroke:none;stroke-width:1px;stroke-linecap:butt;stroke-linejoin:miter;stroke-opacity:1" /><path
       id="path4775"
       d="m 226.4742,247.93015 -9.59588,-13.23744 5.51147,-9.22677 -9.39412,-18.37982 -13.14657,-126.747053 11.23867,-18.029211 15.93847,12.961943 9.25053,128.546801 -5.86587,21.27658 8.69951,8.86345 -7.87964,12.96627 z"
       style="fill:#c32d2f;fill-opacity:1;fill-rule:evenodd;stroke:none;stroke-width:1px;stroke-linecap:butt;stroke-linejoin:miter;stroke-opacity:1" /><path
       id="path4777"
       d="M 298.32121,70.476601 C 294.23135,63.108155 288.15169,51.50305 286.5097,43.091102 c 3.51915,-2.928846 7.58508,0.03219 7.44524,4.182442 3.87387,6.159807 5.19,10.081693 5.55679,3.406175 -6.45557,-10.546176 -6.74792,-1.962149 -6.3813,-18.753495 3.66624,-1.042433 12.87175,-2.233244 21.90941,2.22842 4.32677,4.507334 10.5327,15.420728 10.30742,21.248794 -7.45937,9.596164 -15.02902,14.164825 -27.02605,15.073163 z"
       style="fill:#ffb380;fill-opacity:1;fill-rule:evenodd;stroke:none;stroke-width:1px;stroke-linecap:butt;stroke-linejoin:miter;stroke-opacity:1" /><path
       id="path4771"
       d="m 258.30131,263.32176 19.92498,-14.68157 43.82296,-10.5126 c 0,0 18.41715,-58.68301 25.1578,-108.1208 -4.38231,-49.437799 -21.16618,-77.878724 -21.16618,-77.878724 l -18.45881,16.704546 -0.46788,20.922707 -0.34272,16.970371 -2.28514,39.50282 2.85907,-117.743896 c 0,0 -35.25245,-14.796541 -47.37908,-12.548595 -8.31679,19.30828 -17.56293,55.956336 -17.56293,55.956336 l 18.78825,182.981285 z"
       style="fill:#b3292b;fill-opacity:1;fill-rule:evenodd;stroke:none;stroke-width:1px;stroke-linecap:butt;stroke-linejoin:miter;stroke-opacity:1" /><path
       id="path4779"
       d="m 72.050961,343.42857 c 6.575925,4.25766 29.407709,8.57725 29.407709,8.57725 l 3.08009,-16.03922 -22.967392,-21.63801 c 0,0 -6.658183,15.40418 -9.520407,29.09998 z"
       style="fill:#612c34;fill-opacity:1;fill-rule:evenodd;stroke:none;stroke-width:1px;stroke-linecap:butt;stroke-linejoin:miter;stroke-opacity:1" /><path
       id="path4783"
       d="m 67.003786,402.90746 c -5.352982,-1.91679 2.540225,-21.75904 3.407098,-29.68023 -5.457955,3.97671 -7.537053,21.43893 -11.88913,18.87626 -3.925619,-2.82311 5.189398,-26.50578 8.719024,-34.33064 5.684104,-13.88437 4.522404,-14.37974 14.263212,-11.95239 6.53303,1.81837 13.06657,3.63496 19.59931,5.45438 2.43405,10.22328 4.86764,20.44666 7.30187,30.66989 -4.47092,2.51243 -7.38078,-0.62932 -8.65043,-5.53427 -0.91146,-2.84172 -2.75605,-5.81011 -4.27992,-8.42838 -2.9517,11.94459 -5.94014,39.19727 -10.38293,38.19264 -6.890339,-0.60987 0.74118,-17.25343 -0.0445,-25.1435 -4.323194,6.73398 -4.712874,27.24611 -9.962477,25.63299 -5.249592,-1.61314 2.530882,-19.2552 1.85101,-28.02707 -4.537452,6.47092 -4.579138,26.18711 -9.93213,24.27032 z"
       style="fill:#ffb380;fill-opacity:1;fill-rule:evenodd;stroke:none;stroke-width:1px;stroke-linecap:butt;stroke-linejoin:miter;stroke-opacity:1" /><path
       id="path4785"
       d="m 216.18808,328.90226 c -7.61825,-4.24696 -11.29578,-12.70103 -11.65158,-22.84603 1.40704,-19.02429 0.77526,-48.96063 24.5512,-55.54714 9.03597,0.20709 16.81083,3.70989 25.25225,13.97582 0.84039,9.37053 3.97604,13.31864 4.14677,30.05627 3.79766,7.10583 2.63953,11.32001 2.18846,18.39118 -1.38678,6.423 -4.90902,12.64535 -8.71308,14.7 -2.20893,-9.32796 6.02061,-19.26899 3.23207,-28.62576 0.2226,-7.52172 -2.71271,-14.7835 -8.11704,-19.99462 -7.23957,-7.71564 -2.34675,-19.63941 -17.84196,-21.25223 -12.37487,1.89828 -8.58089,12.46926 -16.08868,18.83329 -6.33663,8.36033 -5.46971,26.75088 -5.50764,33.01098 0.96759,10.3994 3.93527,11.81741 8.54923,19.29824 z"
       style="fill:#8d6042;fill-opacity:1;fill-rule:evenodd;stroke:none;stroke-width:1px;stroke-linecap:butt;stroke-linejoin:miter;stroke-opacity:1" /><path
       id="path4789"
       d="m 237.18018,313.639 c -3.366,-3.55204 2.24031,-2.80547 5.16148,-3.15629 3.36433,-0.22992 4.94188,-3.10086 7.2056,-5.13691 3.66269,-1.11897 0.92113,3.62423 -1.17772,5.3274 -3.29919,1.98033 -5.2286,2.9296 -11.18936,2.9658 z"
       style="fill:#8d6042;fill-opacity:1;fill-rule:evenodd;stroke:none;stroke-width:1px;stroke-linecap:butt;stroke-linejoin:miter;stroke-opacity:1" /><path
       id="path4791"
       d="m 229.88036,283.24562 c -7.01581,0.52312 -8.68103,-10.60581 -1.92328,-12.26262 6.06562,-2.53217 11.34773,5.84863 6.74476,10.32092 -1.21551,1.32883 -3.04023,1.98758 -4.82148,1.9417 z"
       style="fill:#1b1e25;fill-opacity:1;fill-rule:evenodd;stroke:none;stroke-width:0.77112973px;stroke-linecap:butt;stroke-linejoin:miter;stroke-opacity:1" /><path
       id="path4793"
       d="m 227.98359,304.16791 c -2.16032,-1.81979 -6.07405,-10.79316 -3.32219,-14.82288 1.85183,-1.15114 6.64701,-1.63443 10.64354,-0.25981 2.12643,6.31441 -5.80995,0.3608 -9.05618,2.02332 -2.80857,4.36112 2.6768,12.26324 1.73483,13.05937 z"
       style="fill:#8d6042;fill-opacity:1;fill-rule:evenodd;stroke:none;stroke-width:1px;stroke-linecap:butt;stroke-linejoin:miter;stroke-opacity:1" /><path
       id="path4763"
       d="m 207.50348,235.68986 -11.02788,-12.66165 -19.83113,5.70525 -3.67595,-52.28037 13.36718,-65.78623 z"
       style="fill:#121e2a;fill-opacity:1;fill-rule:evenodd;stroke:none;stroke-width:1px;stroke-linecap:butt;stroke-linejoin:miter;stroke-opacity:1" /><path
       id="path4789-3"
       d="m 226.15117,314.00699 c 1.93997,-3.29781 -2.15694,-2.80876 -5.16148,-3.15628 -5.0923,-1.12367 -4.94188,-3.10086 -7.2056,-5.13691 -4.18704,-0.20138 -0.22595,4.22671 1.17771,5.32739 3.16016,2.25841 7.68493,2.46615 11.18937,2.9658 z"
       style="display:inline;fill:#8d6042;fill-opacity:1;fill-rule:evenodd;stroke:none;stroke-width:1px;stroke-linecap:butt;stroke-linejoin:miter;stroke-opacity:1" /><path
       id="path4878"
       d="m 239.11041,233.95863 3.35382,-5.13148 18.33177,26.74657 -17.76806,-28.18454 -8.49997,2.00646 z"
       style="fill:#1a2a37;fill-opacity:1;fill-rule:evenodd;stroke:none;stroke-width:1px;stroke-linecap:butt;stroke-linejoin:miter;stroke-opacity:1" /><path
       id="path4880"
       d="m 216.87832,234.69271 2.22846,-3.61796 -5.03041,0.21302 -2.57255,27.18383 3.22798,-26.28262 z"
       style="fill:#1a2a37;fill-opacity:1;fill-rule:evenodd;stroke:none;stroke-width:1px;stroke-linecap:butt;stroke-linejoin:miter;stroke-opacity:1" /><path
       id="path4769"
       d="m 258.92243,232.85063 18.19838,-18.41259 21.23889,5.30973 -16.74604,-61.26605 -36.61603,-61.270296 z"
       style="fill:#121e2a;fill-opacity:1;fill-rule:evenodd;stroke:none;stroke-width:1px;stroke-linecap:butt;stroke-linejoin:miter;stroke-opacity:1" /><path
       id="path4916"
       d="m 278.22629,248.64019 7.34078,-32.34532 -1.63857,-0.52434 z"
       style="fill:#1a2a37;fill-opacity:1;fill-rule:evenodd;stroke:none;stroke-width:1px;stroke-linecap:butt;stroke-linejoin:miter;stroke-opacity:1" /><path
       id="path4918"
       d="m 205.20137,263.49422 -18.41453,-39.38812 -0.32033,0.41438 z"
       style="fill:#1a2a37;fill-opacity:1;fill-rule:evenodd;stroke:none;stroke-width:1px;stroke-linecap:butt;stroke-linejoin:miter;stroke-opacity:1" /><path
       id="path4920"
       d="m 218.6705,305.28845 c -1.78879,-0.6447 -3.90935,-1.81108 -4.06938,-3.15974 2.70652,-0.59996 9.34135,-0.36033 9.80847,2.44492 -0.7236,1.5332 -3.7324,1.28727 -5.73909,0.71482 z"
       style="fill:#f9f9f9;fill-rule:evenodd;stroke:none;stroke-width:1px;stroke-linecap:butt;stroke-linejoin:miter;stroke-opacity:1" /><path
       id="path4926"
       d="m 239.87356,305.47689 c -2.24136,0.043 -4.3431,-2.13368 -1.30675,-3.25256 2.70308,-0.59126 6.4178,-0.79804 8.22151,0.44853 -1.17895,1.7476 -4.41249,2.66828 -6.91476,2.804 z"
       style="fill:#f9f9f9;fill-rule:evenodd;stroke:none;stroke-width:1px;stroke-linecap:butt;stroke-linejoin:miter;stroke-opacity:1" /><path
       id="path4936"
       d="m 240.43478,305.50966 c -1.36965,-0.79535 -1.19795,-3.05885 0.80412,-3.25786 1.67814,-0.043 2.47289,1.79727 1.3487,2.82153 -0.56864,0.1203 -1.58197,0.32506 -2.15282,0.43633 z"
       style="fill:#1a1a1a;fill-rule:evenodd;stroke:none;stroke-width:1px;stroke-linecap:butt;stroke-linejoin:miter;stroke-opacity:1" /><path
       id="path4936-5"
       d="m 218.67251,305.29784 c -1.02555,-1.04114 -0.69397,-2.87173 1.40733,-2.8137 1.94065,0.42597 1.98612,2.55838 0.65536,3.18026 -0.64237,-0.0518 -1.60655,-0.21566 -2.06269,-0.36656 z"
       style="display:inline;fill:#1a1a1a;fill-rule:evenodd;stroke:none;stroke-width:1px;stroke-linecap:butt;stroke-linejoin:miter;stroke-opacity:1" /></g></svg>