<svg height="512" width="512" xml:space="preserve" xmlns="http://www.w3.org/2000/svg">
  <path d="M512 256a256 256 0 1 1-512 0 256 256 0 0 1 512 0z" fill="#fd5"/>
    <path d="M267 181h58c15 11-4 187-21 261l-78-37z" fill="#612c34" fill-rule="evenodd"/>
    <path d="M293 90c-21 0-36 22-34 39-5 2-4 24 3 30 4 11 14 37 26 37 15 0 22-9 33-15l3-21c3-4 9-18 4-33-1-26-18-37-35-37z" fill="#ffb380" fill-rule="evenodd"/>
    <path d="m229 406 78 16 63 42 1 21c-37 18-91 35-162 23v-36z" fill="#121216" fill-rule="evenodd"/>
    <path d="m267 181-3-3-6 2-52-5-27-20s-42-70-45-68-35 26-38 34c53 112 48 85 108 129-3 71-15 131-31 200l38 22 11-24z" fill="#b3292b" fill-rule="evenodd"/>
    <path d="m285 200-12 17 7 11-12 23-16 160 14 23 20-17 12-162-8-26 11-12-10-16z" fill="#c32d2f" fill-rule="evenodd"/>
    <path d="M391 407c-5 9-13 24-15 34 5 4 10 0 10-5 5-8 6-13 7-4-8 13-9 2-8 23 4 2 16 3 27-2 6-6 14-20 13-27-9-12-19-18-34-19Z" fill="#ffb380" fill-rule="evenodd"/>
    <path d="m325 181 26 18 55 13s23 74 31 136c-5 63-10 79-10 79l-37-19 2-48-8-32 3 148s-44 19-59 16c-11-24-23-71-23-71l24-230z" fill="#b3292b" fill-rule="evenodd"/>
    <path d="M91 80c8-6 37-11 37-11l4 20-29 27s-9-19-12-36z" fill="#612c34" fill-rule="evenodd"/>
    <path d="M84 5c-6 2 4 27 5 37-7-5-10-27-15-24-5 4 6 34 11 44 7 17 5 18 18 15l24-7 10-39c-6-3-10 1-11 7-1 4-4 8-6 11-3-15-7-50-13-48-8 0 1 21 0 31-5-8-6-34-12-32-7 2 3 24 2 35-6-8-6-33-13-30Z" fill="#ffb380" fill-rule="evenodd"/>
    <path d="M272 98c-9 5-14 16-14 29 1 24 1 61 31 70 11-1 21-5 31-18 1-12 5-17 6-38 4-9 3-14 2-23-1-8-6-16-11-18-2 11 8 24 5 36 0 9-4 18-11 25-9 9-3 25-22 27-16-3-11-16-20-24-8-11-7-34-7-42 1-13 5-15 10-24z" fill="#8d6042" fill-rule="evenodd"/>
    <path d="M299 117c-4 5 3 4 6 4 5 0 7 4 9 7 5 1 2-5-1-7-4-3-7-4-14-4z" fill="#8d6042" fill-rule="evenodd"/>
    <path d="M290 155c-9 0-11 15-1 16 9 1 12-14 1-16z" fill="#1b1e25" fill-rule="evenodd"/>
    <path d="M287 129c-2 2-7 14-4 19 2 1 8 2 13 0 3-8-7 0-11-2-3-6 3-16 2-17zm-6 37c2 6 5 12 9 12s5-6 9-12c-4 4-5 7-10 8-5-1-6-4-8-8z" fill="#8d6042" fill-rule="evenodd"/>
    <path d="m261 215-13 16-25-7-5 66 17 83z" fill="#121e2a" fill-rule="evenodd"/>
    <path d="M285 117c2 4-3 3-7 4-6 1-6 4-9 6-5 0 0-5 2-7 4-2 10-3 14-3z" fill="#8d6042" fill-rule="evenodd"/>
    <path d="m301 217 4 7 24-34-21 37-13-4zm-28 0 3 4-7 1-3-35 5 33z" fill="#1a2a37" fill-rule="evenodd"/>
    <path d="m326 219 23 23 27-7-21 77-46 78z" fill="#121e2a" fill-rule="evenodd"/>
    <path d="m351 199 10 40-3 1zm-92-19-23 48-2-1z" fill="#1a2a37" fill-rule="evenodd"/>
    <path d="m275 128-5 4c4 0 12 0 13-3-1-2-5-2-8-1zm27-1c-3 0-5 3-1 5 3 0 8 1 10-1-2-2-6-3-9-4z" fill="#f9f9f9" fill-rule="evenodd"/>
    <path d="M303 127c-2 1-2 4 1 5 2 0 3-3 2-4l-3-1zm-28 1c-1 1 0 3 2 3 3 0 3-3 1-4l-3 1z" fill="#1a1a1a" fill-rule="evenodd"/>
</svg>
